<svg xmlns="http://www.w3.org/2000/svg" width="217.711" height="75.511" viewBox="0 0 217.711 75.511">
  <g id="Group_245" data-name="Group 245" transform="translate(-567.223 -411.793)">
    <path id="Path_273" data-name="Path 273" d="M567.3,428.953h13.226v45.228H567.3Z" transform="translate(0.33 11.933)" fill="#fff"/>
    <path id="Path_274" data-name="Path 274" d="M579.493,429.441h13.226v5.819c2.909-4.893,7.8-7.009,14.15-7.009,10.05,0,17.059,7.009,17.059,19.043v27.376H610.7v-26.45c0-5.025-2.645-8.067-8.067-8.067-6.347,0-9.918,3.438-9.918,10.183v24.334H579.493Z" transform="translate(8.811 11.445)" fill="#fff"/>
    <path id="Path_275" data-name="Path 275" d="M622.853,480.957v5.157H609.629V411.793h13.224v34.251c2.513-3.967,7.141-6.348,14.018-6.348,11.771,0,21.292,10.05,21.292,23.805s-9.521,23.8-21.292,23.8C629.994,487.3,625.366,484.924,622.853,480.957ZM644.542,463.5c0-7.407-4.364-12.168-11.11-12.168s-10.844,4.761-10.844,12.168,4.1,12.166,10.844,12.166S644.542,470.907,644.542,463.5Z" transform="translate(29.767 0)" fill="#fff"/>
    <path id="Path_276" data-name="Path 276" d="M639.311,452.056c0-13.755,10.844-23.805,24.729-23.805s24.731,10.05,24.731,23.805-10.845,23.8-24.731,23.8S639.311,465.809,639.311,452.056Zm35.837,0c0-7.275-4.232-12.565-11.108-12.565s-11.108,5.29-11.108,12.565,4.232,12.563,11.108,12.563S675.148,459.329,675.148,452.056Z" transform="translate(50.408 11.445)" fill="#fff"/>
    <path id="Path_291" data-name="Path 291" d="M686.232,463.641l-9.5-13.422,7.9-11.061,6.819-9.5h15.077l-15.34,21.425,17.324,23.8h-14.15s-5.152-7.158-8.124-11.24Z" transform="translate(76.428 12.421)" fill="#fc8f0d"/>
    <path id="Path_292" data-name="Path 292" d="M689.146,463.641l9.5-13.422-7.9-11.061-6.819-9.5H668.856L684.2,451.08l-17.324,23.8h14.15s5.152-7.158,8.124-11.24Z" transform="translate(69.574 12.421)" fill="#fff"/>
    <rect id="Rectangle_120" data-name="Rectangle 120" width="13.558" height="13.558" transform="translate(567.223 423.492)" fill="#fc8f0d"/>
    <path id="Path_293" data-name="Path 293" d="M688.3,442.292l1.435,1.933L682.9,454.21l-1.528-2.137Z" transform="translate(79.66 21.209)" fill="#161b1c" opacity="0.08"/>
    <path id="Path_294" data-name="Path 294" d="M681.192,436.295l1.235-1.789,7.746,10.253-1.446,2.086Z" transform="translate(79.532 15.795)" fill="#161b1c" opacity="0.08"/>
  </g>
</svg>
